<?xml version="1.0" standalone="no"?>
<!DOCTYPE svg PUBLIC "-//W3C//DTD SVG 20010904//EN"
 "http://www.w3.org/TR/2001/REC-SVG-20010904/DTD/svg10.dtd">
<svg version="1.0" xmlns="http://www.w3.org/2000/svg"
 width="699.000000pt" height="145.000000pt" viewBox="0 0 699.000000 145.000000"
 preserveAspectRatio="xMidYMid meet">

<g transform="translate(0.000000,145.000000) scale(0.100000,-0.100000)"
fill="#ffffff" stroke="none">
<path d="M95 1168 c-3 -7 -4 -182 -3 -388 l3 -375 420 0 420 0 0 385 0 385
-418 3 c-329 2 -419 0 -422 -10z m315 -283 l95 -95 -97 -97 c-78 -77 -100 -95
-110 -85 -10 10 5 30 72 97 l85 85 -84 84 c-72 73 -92 106 -63 106 4 0 50 -43
102 -95z m325 -265 c0 -12 -18 -16 -94 -18 -92 -3 -120 5 -106 27 4 8 40 11
103 9 78 -2 97 -6 97 -18z"/>
<path d="M1300 1042 c0 -4 10 -12 23 -17 22 -10 22 -11 22 -240 l0 -230 -27
-3 c-16 -2 -28 -9 -28 -18 0 -11 21 -14 110 -14 91 0 110 3 110 15 0 9 -9 15
-24 15 -30 0 -36 20 -36 128 0 68 3 82 16 82 32 0 54 -22 95 -93 23 -39 53
-89 66 -109 l23 -38 80 0 c59 0 80 3 80 13 0 7 -14 17 -32 22 -24 8 -46 32
-96 105 -35 52 -71 99 -80 106 -13 10 -10 13 20 23 52 17 89 61 95 113 5 56
-21 98 -79 127 -39 18 -62 21 -191 21 -81 0 -147 -3 -147 -8z m266 -37 c33
-22 50 -85 36 -133 -16 -54 -51 -83 -108 -90 l-47 -5 6 118 c4 64 10 122 13
127 8 13 70 3 100 -17z"/>
<path d="M3790 1041 c0 -5 13 -11 29 -14 l28 -6 6 -123 c4 -68 3 -172 -1 -233
l-7 -110 -27 -3 c-16 -2 -28 -9 -28 -18 0 -11 22 -14 120 -14 100 0 120 3 120
15 0 10 -10 15 -29 15 -27 0 -28 2 -35 61 -8 77 -6 297 2 364 6 42 11 51 30
53 12 2 22 8 22 13 0 5 -51 9 -115 9 -63 0 -115 -4 -115 -9z"/>
<path d="M6250 980 c-24 -24 -25 -34 -4 -54 29 -30 94 -10 94 28 0 18 -33 46
-53 46 -9 0 -26 -9 -37 -20z"/>
<path d="M4563 862 c-35 -32 -63 -61 -63 -65 0 -4 11 -7 25 -7 l25 0 0 -118
c0 -106 2 -121 20 -137 24 -21 83 -24 128 -6 42 18 41 31 -3 31 -46 0 -55 23
-55 140 l0 89 48 3 c40 3 47 6 50 26 3 20 -1 22 -45 22 l-49 0 4 40 c6 55 -9
52 -85 -18z"/>
<path d="M1938 836 c-55 -20 -87 -44 -101 -73 -9 -21 -8 -27 6 -38 10 -7 27
-11 38 -8 18 5 24 17 31 68 2 14 12 21 31 23 38 5 57 -14 57 -54 0 -31 -5 -36
-60 -64 -78 -39 -100 -64 -100 -112 0 -66 70 -83 145 -34 20 13 25 13 32 2 22
-38 77 -42 116 -8 26 23 23 46 -4 31 -33 -17 -39 2 -39 122 0 87 -3 111 -17
128 -23 27 -87 35 -135 17z m62 -199 c0 -55 -12 -77 -41 -77 -36 0 -39 71 -4
105 36 37 45 31 45 -28z"/>
<path d="M2180 795 c-13 -31 -20 -59 -16 -62 3 -4 24 12 47 35 36 38 44 42 89
42 l49 0 -89 -137 c-49 -75 -87 -140 -84 -145 3 -4 63 -8 134 -8 l130 0 24 49
c14 27 22 51 19 55 -3 3 -23 -10 -44 -29 -42 -38 -70 -48 -117 -43 l-31 3 85
131 c78 120 87 131 111 126 20 -4 32 -19 56 -71 99 -217 106 -231 119 -226 7
3 35 54 62 113 64 139 91 182 116 182 11 0 20 7 20 15 0 12 -14 15 -70 15 -56
0 -70 -3 -70 -15 0 -8 6 -15 14 -15 8 0 18 -5 21 -10 8 -14 -57 -172 -66 -163
-11 11 -59 140 -59 158 0 8 7 15 15 15 8 0 15 7 15 15 0 12 -33 14 -221 15
-121 0 -224 2 -229 5 -4 3 -18 -20 -30 -50z"/>
<path d="M2969 835 c-58 -18 -99 -56 -99 -90 0 -24 3 -26 33 -23 29 3 32 6 35
40 3 30 8 39 27 44 48 12 60 2 60 -46 0 -40 -3 -46 -30 -58 -59 -28 -106 -63
-116 -89 -13 -35 -2 -81 22 -93 23 -13 102 5 120 26 10 13 16 11 36 -8 32 -30
89 -30 114 1 21 26 16 49 -7 30 -25 -21 -32 2 -36 118 -3 97 -6 115 -23 132
-27 27 -81 33 -136 16z m57 -261 c-8 -21 -44 -17 -56 5 -17 32 -12 51 23 84
l32 32 3 -54 c2 -29 1 -60 -2 -67z"/>
<path d="M3400 839 c-13 -6 -33 -17 -43 -26 -17 -16 -18 -15 -24 5 -7 28 -22
28 -85 -4 l-52 -26 24 -18 c21 -16 25 -28 28 -94 5 -88 -2 -126 -23 -126 -8 0
-15 -7 -15 -15 0 -12 16 -15 80 -15 64 0 80 3 80 15 0 8 -7 15 -15 15 -12 0
-15 19 -15 108 0 93 3 111 18 125 24 22 55 21 75 -1 24 -26 25 -220 2 -228 -8
-4 -15 -12 -15 -20 0 -11 19 -14 85 -14 69 0 85 3 85 15 0 8 -9 15 -20 15 -23
0 -22 -5 -20 122 2 118 -12 152 -68 167 -44 13 -49 13 -82 0z"/>
<path d="M4280 839 c-13 -6 -32 -17 -41 -25 -16 -14 -18 -13 -24 5 -3 12 -13
21 -20 21 -20 0 -105 -42 -105 -52 0 -4 9 -17 20 -28 17 -17 20 -33 20 -111 0
-82 -2 -91 -20 -96 -11 -3 -20 -12 -20 -19 0 -11 19 -14 80 -14 62 0 80 3 80
14 0 8 -7 16 -15 20 -22 8 -21 192 1 224 18 26 56 29 78 6 23 -22 24 -234 1
-234 -8 0 -15 -7 -15 -15 0 -12 16 -15 85 -15 69 0 85 3 85 15 0 8 -9 15 -20
15 -19 0 -20 7 -20 116 0 63 -5 124 -11 136 -11 21 -67 48 -96 47 -10 0 -29
-5 -43 -10z"/>
<path d="M5370 839 c-13 -5 -33 -17 -43 -26 -17 -16 -18 -15 -24 5 -7 28 -22
28 -84 -4 l-51 -25 21 -20 c19 -18 21 -31 21 -118 0 -92 -1 -99 -21 -104 -45
-12 -5 -27 72 -27 64 0 79 3 79 15 0 8 -7 15 -15 15 -12 0 -15 19 -15 109 0
118 9 141 54 141 45 0 56 -28 56 -138 0 -92 -2 -102 -20 -112 -37 -20 -10 -30
76 -30 66 0 84 3 84 14 0 8 -10 16 -22 18 -22 3 -23 6 -23 120 0 112 -1 119
-25 142 -29 28 -84 40 -120 25z"/>
<path d="M5706 836 c-24 -7 -50 -25 -69 -49 -26 -31 -32 -48 -35 -100 -4 -73
17 -121 66 -150 36 -21 119 -25 153 -7 34 18 69 51 69 67 0 17 -3 17 -45 -9
-30 -17 -43 -19 -73 -12 -42 11 -82 61 -82 105 l0 29 95 0 95 0 0 25 c0 81
-82 128 -174 101z m74 -35 c5 -11 10 -29 10 -40 0 -19 -6 -21 -51 -21 -48 0
-50 1 -43 23 16 53 64 75 84 38z"/>
<path d="M6095 816 l-33 -36 -7 30 c-4 17 -11 30 -16 30 -17 0 -109 -42 -109
-50 0 -4 9 -15 20 -25 17 -16 20 -31 20 -117 0 -98 0 -98 -25 -98 -16 0 -25
-6 -25 -15 0 -13 16 -15 100 -13 56 2 101 7 103 13 1 6 -10 11 -25 13 l-28 3
0 97 c0 53 5 104 10 112 6 9 25 15 51 15 48 0 71 23 53 53 -20 31 -52 26 -89
-12z"/>
<path d="M6280 828 c-92 -31 -88 -27 -60 -48 24 -18 25 -24 25 -122 0 -99 -1
-103 -22 -106 -13 -2 -23 -10 -23 -18 0 -11 19 -14 95 -14 76 0 95 3 95 14 0
8 -10 16 -22 18 -22 3 -23 7 -28 149 l-5 146 -55 -19z"/>
<path d="M6552 840 c-42 -10 -98 -63 -113 -108 -6 -19 -9 -59 -7 -89 6 -71 43
-111 114 -124 56 -11 130 9 159 41 23 26 12 37 -20 22 -43 -20 -99 -15 -122
11 -30 32 -46 92 -40 145 9 80 69 102 99 37 22 -49 99 -36 83 14 -13 42 -85
66 -153 51z"/>
<path d="M4757 833 c-12 -11 -8 -21 12 -26 16 -4 19 -17 23 -108 5 -119 21
-161 67 -177 34 -12 95 0 122 24 21 19 29 18 29 -4 0 -29 7 -31 70 -14 58 16
79 32 41 32 -28 0 -32 22 -30 155 l1 120 -71 3 c-53 2 -71 0 -71 -10 0 -7 10
-18 23 -23 20 -9 22 -18 25 -104 3 -110 -10 -141 -58 -141 -43 0 -50 23 -50
159 l0 121 -63 0 c-35 0 -67 -3 -70 -7z"/>
</g>
</svg>
